<svg xmlns="http://www.w3.org/2000/svg" viewBox="0 0 76.83 74.41"><defs><style>.cls-1{fill:#fcfdfd;}.cls-2{fill:#237cbc;}.cls-3{fill:#fff;}.cls-4{fill:#f02939;}</style></defs><g id="Capa_2" data-name="Capa 2"><g id="Capa_1-2" data-name="Capa 1"><path class="cls-1" d="M0,36.19C.18,45.9,2.83,53.74,8.35,60.6A36.07,36.07,0,0,0,29.06,73.46a35.85,35.85,0,0,0,24.12-2.75c1-.5,2-1.3,3.44-1,6.3,1.16,12.63,2.15,18.94,3.25,1.11.19,1.43-.08,1.2-1.19-1-4.68-2-9.33-2.73-14-.52-3.58-2-6.9-1-10.86a35.75,35.75,0,0,0-4.81-30A36.15,36.15,0,0,0,40.56.19,35.45,35.45,0,0,0,15.91,6.83,36.5,36.5,0,0,0,0,36.19Z"/><path class="cls-2" d="M0,36.19A36.5,36.5,0,0,1,15.91,6.83,35.45,35.45,0,0,1,40.56.19,36.15,36.15,0,0,1,68.24,16.82a35.75,35.75,0,0,1,4.81,30c-1.06,4,.46,7.28,1,10.86.69,4.72,1.78,9.37,2.73,14,.23,1.11-.09,1.38-1.2,1.19-6.31-1.1-12.64-2.09-18.94-3.25-1.44-.27-2.4.53-3.44,1a35.85,35.85,0,0,1-24.12,2.75A36.07,36.07,0,0,1,8.35,60.6C2.83,53.74.18,45.9,0,36.19ZM70.22,37a19.51,19.51,0,0,0-.57-5.32,31.54,31.54,0,0,0-7.11-15.5A32.11,32.11,0,0,0,39.12,4.41a31.56,31.56,0,0,0-22.89,7.44,32.54,32.54,0,0,0-11.93,24,42.3,42.3,0,0,0,.34,7.5A24.48,24.48,0,0,0,7,50.42c4.49,9.58,11.81,16,22,18.69a31.94,31.94,0,0,0,24.57-3.34,3.37,3.37,0,0,1,2.37-.44c4.5.66,9,1.2,13.54,1.82,1.32.18,1.7-.24,1.43-1.57-.78-3.91-1.43-7.85-2.19-11.77A15.1,15.1,0,0,1,69,45.55,22.49,22.49,0,0,0,70.22,37Z"/><path class="cls-3" d="M70.22,37A22.49,22.49,0,0,1,69,45.55a15.1,15.1,0,0,0-.27,8.26c.76,3.92,1.41,7.86,2.19,11.77.27,1.33-.11,1.75-1.43,1.57-4.51-.62-9-1.16-13.54-1.82a3.37,3.37,0,0,0-2.37.44A31.94,31.94,0,0,1,29,69.11C18.8,66.39,11.48,60,7,50.42a24.48,24.48,0,0,1-2.35-7.1,42.3,42.3,0,0,1-.34-7.5,32.54,32.54,0,0,1,11.93-24A31.56,31.56,0,0,1,39.12,4.41,32.11,32.11,0,0,1,62.54,16.22a31.54,31.54,0,0,1,7.11,15.5A19.51,19.51,0,0,1,70.22,37ZM46.94,49l-.14-.17s0,.1,0,.11a.37.37,0,0,0,.15,0c.11.35.23.69.34,1H27.45v.45c.13.06.26.18.39.18l18.56,0c.51,0,.89-.09.9-.7.84,1.4-.12,2.55-.62,3.71-.4,1-1.17,0-1.77,0-5.06.07-10.14,0-15.21,0-.38,0-.81-.07-1,.45.39.71,1.09.41,1.64.41,5,0,9.92,0,14.87,0,.36,0,.86-.21,1,.34a1,1,0,0,1-.6,1.1,2.76,2.76,0,0,1-1.15.19H29.71c-.59,0-1.18,0-1.42-.65-.78-2-2-3.88-1.62-6.21-2.76.83-2.85,1.06-1.5,3.43.39.69.68,1.43,1.1,2.09.58.9.48,1.27-.67,1.29-2.13,0-4.25,0-6.39.23-2.55.27-2.94-.27-3.07-2.84-.07-1.46,0-2.93-.1-4.39a5.58,5.58,0,0,1,1.65-4.06c.42-.53,1.15-.91,1-2-2.15,2-3.94,4-3.46,7a22.67,22.67,0,0,1,0,5.27,2.18,2.18,0,0,0,.78,1.85,28.07,28.07,0,0,0,16.95,8.77,28.91,28.91,0,0,0,22.43-6.14c1.21-.94,3-1.8,3.19-3.48a25.64,25.64,0,0,0,.37-8c-.13-.79,0-1.79-1-2.3-.07.21-.15.33-.12.41,1.06,2.87.57,5.72,0,8.59-.16.75-.59,1-1.26,1.11-2,.41-4-.18-6-.09-3,.13-3.06,0-1.7-2.7,1.59-3.21,1.59-3.21-1.77-4.49C47.06,48.93,47,49,46.94,49Zm13.32,5.89a27.6,27.6,0,0,0,5.25-11,27.77,27.77,0,0,0-2-19.07,28.44,28.44,0,0,0-20.34-16,27.77,27.77,0,0,0-21.59,4,28,28,0,0,0-13,19.67C7.18,40.24,9,47.36,13.24,54a.78.78,0,0,0,.65.43c.46,0,.4-.46.39-.78,0-.51,0-1,0-1.52-.09-2.73-.05-5.37,2-7.6,1.35-1.5,1.2-1.71-.81-2.24-1.53-.39-1.94-1.45-1.06-2.73,1.3-1.89,4-2,5.85-.09.48-.78,1-1.52,1.41-2.31a8.34,8.34,0,0,1,7.28-4.79,108.79,108.79,0,0,1,18.93.43,4.4,4.4,0,0,1,3.5,2.3c.73,1.25,1.58,2.43,2.38,3.64.28.42.44,1,1.08.28,1.45-1.54,3-1.49,4.6,0s1.23,2.72-.69,3.31c-1.5.46-1.7.89-.64,2,2.31,2.5,2.33,5.49,1.92,8.54A2.71,2.71,0,0,0,60.26,54.85Zm-8-11.42a1.61,1.61,0,0,0,.49,0c2-.71,3.77-2.15,6-2.3A.6.6,0,0,0,59.1,40c-.84-.47-1.55-1.35-2.7-1.14s-1,1.06-1.09,1.83c-.05.44-.18.79-.7.74-.32,0-.65,0-.79-.45-.75-2.34-2.4-4.11-3.76-6.06a2.08,2.08,0,0,0-1.44-1,65.89,65.89,0,0,0-22.5-.1,2.81,2.81,0,0,0-2,1.29c-1.15,1.78-2.34,3.53-3.46,5.33-.26.42-.31,1-1,1s-.54-.74-.6-1.2c-.1-.86-.56-1.37-1.43-1.31-1.06.07-2.18.2-2.75,1.26-.23.44-.09,1.22.5,1.23,2.09,0,3.73,1.43,5.71,1.71a1.86,1.86,0,0,0,.61-.1c-.43-2.13,1.3-1.34,2.09-1.39,9.11-.54,18.23-.39,27.35,0C53,41.66,53.11,41.87,52.28,43.43Zm-4,4.26c1.72,2,6,2.88,8,1.69,1-.59.59-1.63.52-2.46s-.83-.47-1.36-.46C53,46.49,50.82,47.52,48.27,47.69ZM22.21,49.76c1.53.29,2.21-.75,3.16-1.14.27-.11.57-.31.48-.59a.86.86,0,0,0-.64-.43c-2-.24-3.9-1-5.94-1.09-.78,0-1.76-.45-1.81,1,0,1.13.15,2,1.54,2.09C20.18,49.63,21.35,49.71,22.21,49.76Zm15.11-1.1c-2.52,0-5,0-7.58,0-.34,0-.89-.22-.95.36s.47.51.83.52H45c.32,0,.77.07.8-.38,0-.61-.49-.5-.85-.5Zm9.12,3.19c-2-.87-17.75-.68-18.67,0Zm-1,3.68,0-.29H28.83v.29ZM28,52.72l0,.25H46.17v-.25Z"/><path class="cls-4" d="M60.26,54.85a2.71,2.71,0,0,1-.31-2c.41-3,.39-6-1.92-8.54-1.06-1.14-.86-1.57.64-2,1.92-.59,2.19-1.9.69-3.31s-3.15-1.58-4.6,0c-.64.68-.8.14-1.08-.28-.8-1.21-1.65-2.39-2.38-3.64a4.4,4.4,0,0,0-3.5-2.3,108.79,108.79,0,0,0-18.93-.43,8.34,8.34,0,0,0-7.28,4.79c-.43.79-.93,1.53-1.41,2.31-1.81-1.88-4.55-1.8-5.85.09-.88,1.28-.47,2.34,1.06,2.73,2,.53,2.16.74.81,2.24-2,2.23-2,4.87-2,7.6,0,.5,0,1,0,1.52,0,.32.07.74-.39.78a.78.78,0,0,1-.65-.43C9,47.36,7.18,40.24,8.53,32.43a28,28,0,0,1,13-19.67,27.77,27.77,0,0,1,21.59-4,28.44,28.44,0,0,1,20.34,16,27.77,27.77,0,0,1,2,19.07A27.6,27.6,0,0,1,60.26,54.85Z"/><path class="cls-2" d="M47.31,50l-.34-1,0,0c.06,0,.12,0,.17,0,3.36,1.28,3.36,1.28,1.77,4.49-1.36,2.73-1.35,2.83,1.7,2.7,2-.09,4,.5,6,.09.67-.14,1.1-.36,1.26-1.11.6-2.87,1.09-5.72,0-8.59,0-.08,0-.2.12-.41,1,.51.9,1.51,1,2.3a25.64,25.64,0,0,1-.37,8c-.24,1.68-2,2.54-3.19,3.48a28.91,28.91,0,0,1-22.43,6.14A28.07,28.07,0,0,1,16.1,57.28a2.18,2.18,0,0,1-.78-1.85,22.67,22.67,0,0,0,0-5.27c-.48-3,1.31-5,3.46-7,.1,1.06-.63,1.44-1,2A5.58,5.58,0,0,0,16,49.17c.11,1.46,0,2.93.1,4.39.13,2.57.52,3.11,3.07,2.84,2.14-.22,4.26-.18,6.39-.23,1.15,0,1.25-.39.67-1.29-.42-.66-.71-1.4-1.1-2.09-1.35-2.37-1.26-2.6,1.5-3.43-.4,2.33.84,4.21,1.62,6.21.24.64.83.65,1.42.65h14.7A2.76,2.76,0,0,0,45.56,56a1,1,0,0,0,.6-1.1c-.11-.55-.61-.34-1-.34-4.95,0-9.91,0-14.87,0-.55,0-1.25.3-1.64-.41.2-.52.63-.45,1-.45,5.07,0,10.15,0,15.21,0,.6,0,1.37.91,1.77,0,.5-1.16,1.46-2.31.62-3.71Z"/><path class="cls-2" d="M52.28,43.43c.83-1.56.69-1.77-1.14-1.84-9.12-.36-18.24-.51-27.35,0-.79.05-2.52-.74-2.09,1.39a1.86,1.86,0,0,1-.61.1c-2-.28-3.62-1.69-5.71-1.71-.59,0-.73-.79-.5-1.23.57-1.06,1.69-1.19,2.75-1.26.87-.06,1.33.45,1.43,1.31.06.46-.15,1.12.6,1.2s.71-.54,1-1c1.12-1.8,2.31-3.55,3.46-5.33a2.81,2.81,0,0,1,2-1.29,65.89,65.89,0,0,1,22.5.1,2.08,2.08,0,0,1,1.44,1c1.36,2,3,3.72,3.76,6.06.14.43.47.42.79.45.52.05.65-.3.7-.74.09-.77,0-1.63,1.09-1.83s1.86.67,2.7,1.14a.6.6,0,0,1-.29,1.12c-2.27.15-4,1.59-6,2.3A1.61,1.61,0,0,1,52.28,43.43Z"/><path class="cls-2" d="M48.27,47.69c2.55-.17,4.75-1.2,7.13-1.23.53,0,1.28-.35,1.36.46s.47,1.87-.52,2.46C54.23,50.57,50,49.73,48.27,47.69Z"/><path class="cls-2" d="M22.21,49.76c-.86,0-2-.13-3.21-.18-1.39-.07-1.57-1-1.54-2.09.05-1.43,1-1,1.81-1,2,.05,3.94.85,5.94,1.09a.86.86,0,0,1,.64.43c.09.28-.21.48-.48.59C24.42,49,23.74,50.05,22.21,49.76Z"/><path class="cls-2" d="M37.32,48.66h7.59c.36,0,.89-.11.85.5,0,.45-.48.38-.8.38H29.62c-.36,0-.9.07-.83-.52s.61-.36.95-.36C32.27,48.65,34.8,48.66,37.32,48.66Z"/><path class="cls-2" d="M47.29,50c0,.61-.39.7-.9.7l-18.56,0c-.13,0-.26-.12-.39-.18V50H47.31Z"/><path class="cls-2" d="M46.44,51.85H27.77C28.69,51.17,44.42,51,46.44,51.85Z"/><path class="cls-2" d="M45.43,55.53H28.84v-.29H45.41Z"/><path class="cls-2" d="M28,52.72H46.17V53H27.94Z"/><path class="cls-2" d="M47,48.94a.37.37,0,0,1-.15,0s0-.07,0-.11l.14.17Z"/></g></g></svg>